HIERARCHY
ROOT Root
{
	OFFSET 0.00000 0.00000 0.00000
	CHANNELS 6 Xposition Yposition Zposition Zrotation Xrotation Yrotation
	JOINT Hips
	{
		OFFSET 0 0 0	
		CHANNELS 3 Zrotation Xrotation Yrotation
		JOINT Spine
		{
			OFFSET 0 4 0	
			CHANNELS 3 Zrotation Xrotation Yrotation
			JOINT Spine1
			{
				OFFSET 0 19.4 0	
				CHANNELS 3 Zrotation Xrotation Yrotation
				JOINT Spine2
				{
					OFFSET 0 16.6 0	
					CHANNELS 3 Zrotation Xrotation Yrotation
					JOINT LeftCollar
					{
						OFFSET 0 10 0	
						CHANNELS 3 Zrotation Xrotation Yrotation
						JOINT LeftArm
						{
							OFFSET 15.6 -2 3	
							CHANNELS 3 Zrotation Xrotation Yrotation
							JOINT LeftForeArm
							{
								OFFSET 3.5 -27 -1	
								CHANNELS 3 Zrotation Xrotation Yrotation
								JOINT LeftHand
								{
									OFFSET 1 -27 1	
									CHANNELS 3 Zrotation Xrotation Yrotation
									End Site
									{
										OFFSET 0 -15 0
									}
								}
							}
						}
					}
					JOINT RightCollar
					{
						OFFSET 0 10 0	
						CHANNELS 3 Zrotation Xrotation Yrotation
						JOINT RightArm
						{
							OFFSET -15.6 -2 3	
							CHANNELS 3 Zrotation Xrotation Yrotation
							JOINT RightForeArm
							{
								OFFSET -3.5 -27 -1	
								CHANNELS 3 Zrotation Xrotation Yrotation
								JOINT RightHand
								{
									OFFSET -1 -27 1	
									CHANNELS 3 Zrotation Xrotation Yrotation
									End Site
									{
										OFFSET 0 -15 0
									}
								}
							}
						}
					}
					JOINT Neck
					{
						OFFSET 0 10 0	
						CHANNELS 3 Zrotation Xrotation Yrotation
						JOINT Head
						{
							OFFSET 0 12.7 3	
							CHANNELS 3 Zrotation Xrotation Yrotation
							End Site
							{
								OFFSET 0 12.7 3
							}
						}
					}
				}
			}
		}
	}
	JOINT LeftHip
	{
		OFFSET 0 0 0	
		CHANNELS 3 Zrotation Xrotation Yrotation
		JOINT LeftUpLeg
		{
			OFFSET 8.8 -6 0	
			CHANNELS 3 Zrotation Xrotation Yrotation
			JOINT LeftLeg
			{
				OFFSET 0 -39 2	
				CHANNELS 3 Zrotation Xrotation Yrotation
				JOINT LeftFoot
				{
					OFFSET 0 -43 -2	
					CHANNELS 3 Zrotation Xrotation Yrotation
					JOINT LeftFootFront
					{
						OFFSET 0 -7 8.5	
						CHANNELS 3 Zrotation Xrotation Yrotation
						End Site
						{
							OFFSET 0 -0.5 9
						}
					}
				}
				JOINT LeftHeel
				{
					OFFSET 0 -43 -2	
					CHANNELS 3 Zrotation Xrotation Yrotation
					End Site
					{
						OFFSET 0 -7.5 -5
					}
				}
			}
		}
	}
	JOINT RightHip
	{
		OFFSET 0 0 0	
		CHANNELS 3 Zrotation Xrotation Yrotation
		JOINT RightUpLeg
		{
			OFFSET -8.8 -6 0	
			CHANNELS 3 Zrotation Xrotation Yrotation
			JOINT RightLeg
			{
				OFFSET 0 -39 2	
				CHANNELS 3 Zrotation Xrotation Yrotation
				JOINT RightFoot
				{
					OFFSET 0 -43 -2	
					CHANNELS 3 Zrotation Xrotation Yrotation
					JOINT RightFootFront
					{
						OFFSET 0 -7 8.5	
						CHANNELS 3 Zrotation Xrotation Yrotation
						End Site
						{
							OFFSET 0 -0.5 9
						}
					}
				}
				JOINT RightHeel
				{
					OFFSET 0 -43 -2	
					CHANNELS 3 Zrotation Xrotation Yrotation
					End Site
					{
						OFFSET 0 -7.5 -5
					}
				}
			}
		}
	}
}
MOTION
Frames: 16
Frame Time: 0.025
0 95.545 0 -0 0 -0 -0.51313 0.41403 -0.21633 0.62467 0.074423 0.73419 0.62467 0.074423 0.73419 0.52479 0.061978 0.61677 -0 0 -0 -0.32007 -0.91541 -1.3684 -0.479 0.33269 -0.085535 -1.4765 0.33905 -1.7478 -0 0 -0 -1.2366 -0.52358 -0.55455 -0.31023 0.37609 -0.90398 0.47923 -0.56236 0.43871 -1.0878 -0.33655 -1.5353 -1.0878 -0.33655 -1.5353 -0.51313 0.41403 -0.21633 0.66246 -0.49159 0.18918 -0.043982 0.32983 1.2299 -0.19204 -0.37154 -1.291 0 0 -1.0292e-09 -0 0 -0 -0.51313 0.41403 -0.21633 0.65456 -0.71977 -2.6587 -0.11584 -0.012734 2.7986 -0.1588 0.31554 -0.36699 -0 0 2.1727e-08 -0 0 -0 
0 95.543 0 -0 0 -0 -0.48303 0.38545 -0.21475 0.60695 0.091478 0.73291 0.60695 0.091478 0.73291 0.50991 0.07632 0.61571 -0 0 -0 -0.30329 -0.95138 -1.373 -0.46856 0.33362 -0.073259 -1.4841 0.35412 -1.7537 -0 0 -0 -1.2187 -0.54721 -0.56137 -0.3085 0.36642 -0.90493 0.47939 -0.54917 0.44741 -1.0957 -0.35152 -1.5274 -1.0957 -0.35152 -1.5274 -0.48303 0.38545 -0.21475 0.63302 -0.46187 0.18379 -0.043793 0.32285 1.2206 -0.19283 -0.36586 -1.2783 -0.0017529 0.0004412 -0.0052502 -0 0 -0 -0.48303 0.38545 -0.21475 0.6273 -0.69044 -2.666 -0.1158 -0.019611 2.8033 -0.16147 0.32152 -0.36652 0.0061132 0.0012634 -0.00049387 -0 0 -0 
0 95.541 0 -0 0 -0 -0.44155 0.34805 -0.2189 0.5792 0.10952 0.73843 0.5792 0.10952 0.73843 0.48663 0.091495 0.62036 -0 0 -0 -0.2685 -0.98867 -1.3921 -0.45645 0.33346 -0.055072 -1.488 0.35802 -1.7637 -0 0 -0 -1.185 -0.56627 -0.58499 -0.3064 0.35382 -0.90598 0.48923 -0.52847 0.46316 -1.1019 -0.36529 -1.5234 -1.1019 -0.36529 -1.5234 -0.44155 0.34805 -0.2189 0.59232 -0.42276 0.18278 -0.041619 0.31322 1.2054 -0.19739 -0.35759 -1.2639 -0.00052545 -0.0040689 -0.0079322 -0 0 -0 -0.44155 0.34805 -0.2189 0.59008 -0.65495 -2.6713 -0.11755 -0.025466 2.808 -0.1577 0.33029 -0.36286 0.0078662 0.0016641 -0.00051546 -0 0 -0 
0 95.539 0 -0 0 -0 -0.40117 0.31172 -0.22748 0.5493 0.12471 0.74752 0.5493 0.12471 0.74752 0.46152 0.10428 0.628 -0 0 -0 -0.22901 -1.0179 -1.4127 -0.44087 0.32963 -0.03661 -1.4906 0.35636 -1.775 -0 0 -0 -1.1462 -0.57882 -0.61401 -0.3054 0.34332 -0.90521 0.50593 -0.50799 0.47841 -1.1039 -0.37575 -1.5221 -1.1039 -0.37575 -1.5221 -0.40117 0.31172 -0.22748 0.55233 -0.38451 0.18651 -0.038048 0.30609 1.1907 -0.20184 -0.35649 -1.2529 -0.0007465 -0.015659 -0.013954 -0 0 -0 -0.40117 0.31172 -0.22748 0.55426 -0.6275 -2.6753 -0.1199 -0.022252 2.8191 -0.15222 0.33736 -0.36248 0.0079351 0.0015102 -0.00069497 -0 0 -0 
0 95.537 0 -0 0 -0 -0.36292 0.27519 -0.22852 0.52856 0.14202 0.74774 0.52856 0.14202 0.74774 0.44411 0.11883 0.62819 -0 0 -0 -0.21476 -1.0461 -1.4193 -0.42795 0.32419 -0.013242 -1.4899 0.3465 -1.7829 -0 0 -0 -1.135 -0.5975 -0.62473 -0.30423 0.3377 -0.90627 0.52668 -0.49116 0.49411 -1.1146 -0.39026 -1.5123 -1.1146 -0.39026 -1.5123 -0.36292 0.27519 -0.22852 0.51355 -0.34595 0.1836 -0.03389 0.30019 1.1752 -0.20653 -0.3684 -1.2479 -0.011586 -0.025269 -0.026296 -0 0 -0 -0.36292 0.27519 -0.22852 0.52052 -0.60667 -2.686 -0.1224 -0.010052 2.8355 -0.14697 0.34207 -0.36829 0.0097566 0.0014313 -0.0017349 -0 0 -0 
0 95.536 0 -0 0 -0 -0.32291 0.23863 -0.21998 0.51238 0.16529 0.74357 0.51238 0.16529 0.74357 0.43055 0.1384 0.6247 -0 0 -0 -0.21124 -1.0857 -1.4405 -0.42867 0.32537 0.021699 -1.4819 0.32204 -1.7882 -0 0 -0 -1.14 -0.63493 -0.63466 -0.30374 0.34397 -0.91108 0.54873 -0.48393 0.51414 -1.1295 -0.41837 -1.5002 -1.1295 -0.41837 -1.5002 -0.32291 0.23863 -0.21998 0.47251 -0.30733 0.16961 -0.030341 0.29277 1.1618 -0.22118 -0.38831 -1.2559 -0.019935 -0.026602 -0.030576 -0 0 -0 -0.32291 0.23863 -0.21998 0.48417 -0.58851 -2.7017 -0.12374 0.0054913 2.849 -0.14044 0.34602 -0.37689 0.0115 0.0017978 -0.0025525 -0 0 -0 
0 95.534 0 -0 0 -0 -0.28086 0.20377 -0.20359 0.48316 0.1902 0.74525 0.48316 0.1902 0.74525 0.40602 0.15935 0.62612 -0 0 -0 -0.17669 -1.1277 -1.4997 -0.43152 0.32803 0.065328 -1.4678 0.29354 -1.7916 -0 0 -0 -1.1058 -0.68324 -0.67463 -0.31007 0.36931 -0.91116 0.57194 -0.49202 0.53547 -1.1227 -0.45619 -1.4973 -1.1227 -0.45619 -1.4973 -0.28086 0.20377 -0.20359 0.43093 -0.27211 0.14219 -0.029532 0.28324 1.156 -0.24295 -0.40562 -1.2702 -0.0119 -0.023105 -0.024071 -0 0 -0 -0.28086 0.20377 -0.20359 0.44276 -0.56902 -2.7203 -0.12182 0.018839 2.8595 -0.13236 0.34961 -0.38814 0.010129 0.0019792 -0.0023065 -0 0 -0 
0 95.533 0 -0 0 -0 -0.23697 0.16745 -0.17451 0.44055 0.2133 0.74456 0.44055 0.2133 0.74456 0.37025 0.17878 0.62554 -0 0 -0 -0.11273 -1.161 -1.5598 -0.42942 0.3258 0.1031 -1.4481 0.27535 -1.7849 -0 0 -0 -1.029 -0.72592 -0.72811 -0.32088 0.40186 -0.90076 0.594 -0.50734 0.55505 -1.0911 -0.48902 -1.4947 -1.0911 -0.48902 -1.4947 -0.23697 0.16745 -0.17451 0.38942 -0.23793 0.099497 -0.031101 0.27188 1.1563 -0.25611 -0.41536 -1.2814 -0.0052415 -0.015035 -0.020993 -0 0 -0 -0.23697 0.16745 -0.17451 0.39675 -0.54791 -2.7501 -0.11704 0.032971 2.8728 -0.12587 0.35252 -0.40352 0.0089025 0.0017144 -0.0018373 -0 0 -0 
0 95.533 0 -0 0 -0 -0.19162 0.12788 -0.13634 0.40188 0.23878 0.73169 0.40188 0.23878 0.73169 0.33779 0.20023 0.61473 -0 0 -0 -0.060834 -1.2044 -1.5761 -0.43258 0.33437 0.12125 -1.4297 0.26392 -1.7782 -0 0 -0 -0.96818 -0.76556 -0.75681 -0.31613 0.41839 -0.89372 0.60558 -0.51299 0.57923 -1.0629 -0.51626 -1.4797 -1.0629 -0.51626 -1.4797 -0.19162 0.12788 -0.13634 0.34478 -0.20013 0.052642 -0.031423 0.25938 1.1517 -0.26199 -0.41643 -1.2895 -0.012328 0.0035656 -0.028568 -0 0 -0 -0.19162 0.12788 -0.13634 0.34724 -0.5227 -2.7906 -0.11045 0.046031 2.8863 -0.1204 0.35545 -0.41696 0.011534 0.0014675 -0.0010533 -0 0 -0 
0 95.534 0 -0 0 -0 -0.14498 0.089035 -0.10898 0.37365 0.26382 0.7184 0.37365 0.26382 0.7184 0.31409 0.2213 0.60357 -0 0 -0 -0.035978 -1.2563 -1.5608 -0.44351 0.35835 0.12527 -1.4218 0.25418 -1.7948 -0 0 -0 -0.94177 -0.79725 -0.76584 -0.29678 0.41438 -0.89813 0.60727 -0.50429 0.60656 -1.0536 -0.53886 -1.46 -1.0536 -0.53886 -1.46 -0.14498 0.089035 -0.10898 0.29384 -0.16014 0.023597 -0.026244 0.2484 1.1378 -0.275 -0.40305 -1.3028 -0.012665 0.027057 -0.030783 -0 0 -0 -0.14498 0.089035 -0.10898 0.29662 -0.49397 -2.8215 -0.10516 0.054425 2.8977 -0.11085 0.35858 -0.42628 0.01364 0.00085641 -0.0011371 -0 0 -0 
0 95.535 0 -0 0 -0 -0 0 -0 0.30103 0.30845 0.66549 0.30103 0.30845 0.66549 0.2531 0.25887 0.55912 -0 0 -0 0.021517 -1.3125 -1.5024 -0.45701 0.37516 0.13056 -1.4166 0.25225 -1.8282 -0 0 -0 -0.87974 -0.83171 -0.73625 -0.29188 0.40749 -0.89833 0.61726 -0.49609 0.62042 -1.0307 -0.56306 -1.4264 -1.0307 -0.56306 -1.4264 -0 0 -0 0.14216 -0.068456 -0.086122 -0.017844 0.24208 1.1194 -0.28886 -0.37265 -1.315 0.0069964 0.032878 -0.021112 -0 0 -0 -0 0 -0 0.15 -0.40912 -2.9337 -0.10442 0.059168 2.9084 -0.097436 0.35827 -0.43551 0.014101 -0.00046373 -0.0021193 -0 0 -0 
0 95.536 0 -0 0 -0 -0 0 -0 0.29965 0.30114 0.67017 0.29965 0.30114 0.67017 0.25194 0.25272 0.56305 -0 0 -0 0.018369 -1.299 -1.491 -0.46835 0.37222 0.13775 -1.4013 0.26032 -1.8526 -0 0 -0 -0.87066 -0.80426 -0.75988 -0.29578 0.40315 -0.89991 0.62935 -0.4935 0.63643 -1.034 -0.55627 -1.42 -1.034 -0.55627 -1.42 -0 0 -0 0.1378 -0.066332 -0.09153 -0.011196 0.24075 1.1019 -0.28329 -0.3408 -1.3132 0.024018 0.012443 -0.015633 -0 0 -0 -0 0 -0 0.15137 -0.40987 -2.9389 -0.10575 0.065404 2.9179 -0.083676 0.35216 -0.44195 0.014592 -0.0015898 -0.0024968 -0 0 -0 
0 95.539 0 -0 0 -0 -0 0 -0 0.30003 0.28761 0.67344 0.30003 0.28761 0.67344 0.25225 0.24135 0.56579 -0 0 -0 0.0062233 -1.2625 -1.4736 -0.47409 0.36578 0.13597 -1.3852 0.27059 -1.8585 -0 0 -0 -0.86784 -0.75861 -0.79422 -0.28927 0.398 -0.90406 0.63335 -0.49249 0.67063 -1.0373 -0.53863 -1.4116 -1.0373 -0.53863 -1.4116 -0 0 -0 0.13498 -0.065619 -0.10225 -0.0061095 0.24003 1.0909 -0.26118 -0.32896 -1.307 0.018659 -0.012262 -0.02005 -0 0 -0 -0 0 -0 0.15304 -0.41107 -2.948 -0.107 0.072647 2.9275 -0.069903 0.34434 -0.44499 0.01028 -0.0012485 -0.001249 -0 0 -0 
0 95.542 0 -0 0 -0 -0 0 -0 0.30394 0.27325 0.67545 0.30394 0.27325 0.67545 0.25553 0.22929 0.56747 -0 0 -0 -0.01557 -1.2275 -1.4555 -0.47932 0.37339 0.12329 -1.3786 0.27297 -1.8509 -0 0 -0 -0.87393 -0.71044 -0.83571 -0.27821 0.39339 -0.90341 0.63139 -0.4929 0.71103 -1.0467 -0.51624 -1.3999 -1.0467 -0.51624 -1.3999 -0 0 -0 0.13358 -0.064195 -0.11274 -0.0023357 0.23631 1.0855 -0.24508 -0.33936 -1.311 0.0017274 -0.019212 -0.02716 -0 0 -0 -0 0 -0 0.15396 -0.41304 -2.9599 -0.10656 0.078921 2.94 -0.06133 0.33871 -0.44696 0.0074607 -0.0015373 -0.0005185 -0 0 -0 
0 95.545 0 -0 0 -0 -0 0 -0 0.30746 0.26071 0.67945 0.30746 0.26071 0.67945 0.25848 0.21875 0.57083 -0 0 -0 -0.031268 -1.2028 -1.4464 -0.48755 0.39037 0.11031 -1.373 0.27107 -1.8458 -0 0 -0 -0.87176 -0.66866 -0.87963 -0.27578 0.39384 -0.89342 0.62861 -0.49716 0.73867 -1.0567 -0.49385 -1.3872 -1.0567 -0.49385 -1.3872 -0 0 -0 0.13355 -0.060711 -0.11934 1.7975e-05 0.2292 1.0783 -0.24598 -0.355 -1.3244 -0.0056714 -0.013296 -0.033858 -0 0 -0 -0 0 -0 0.15441 -0.41348 -2.9725 -0.10423 0.08122 2.9547 -0.056772 0.33536 -0.44958 0.0075577 -0.00043463 -8.9947e-05 -0 0 -0 
0 95.548 0 -0 0 -0 -0 0 -0 0.30755 0.24769 0.68517 0.30755 0.24769 0.68517 0.25854 0.20781 0.57563 -0 0 -0 -0.031261 -1.1783 -1.4323 -0.49528 0.40089 0.097791 -1.3712 0.28011 -1.856 -0 0 -0 -0.85504 -0.62925 -0.92202 -0.28038 0.39969 -0.87759 0.62797 -0.50247 0.75347 -1.0589 -0.46863 -1.3736 -1.0589 -0.46863 -1.3736 -0 0 -0 0.13135 -0.05625 -0.12315 0.0039997 0.22093 1.0652 -0.25357 -0.36439 -1.3414 0.0032227 -0.0062936 -0.035802 -0 0 -0 -0 0 -0 0.15496 -0.41345 -2.9829 -0.10123 0.079697 2.9675 -0.052693 0.3365 -0.45212 0.0092763 0.0018738 0.00025995 -0 0 -0 
